{
  "accessors": [
    {
      "bufferView": 0,
      "componentType": 5126,
      "count": 30,
      "type": "VEC3",
      "max": [
        0.666401,
        0.22648634,
        0.730238438
      ],
      "min": [
        0.160777,
        -0.437991321,
        0.143376321
      ]
    },
    {
      "bufferView": 0,
      "byteOffset": 360,
      "componentType": 5126,
      "count": 30,
      "type": "VEC3",
      "max": [
        0.982184947,
        0.982184947,
        1.0
      ],
      "min": [
        -0.982184947,
        -0.982184947,
        -1.0
      ]
    },
    {
      "bufferView": 1,
      "componentType": 5125,
      "count": 48,
      "type": "SCALAR",
      "max": [
        29.0
      ],
      "min": [
        0.0
      ]
    }
  ],
  "asset": {
    "generator": "TOPSOLID 7.17.400.127",
    "version": "2.0"
  },
  "buffers": [
    {
      "uri": "2.bin",
      "byteLength": 912
    }
  ],
  "bufferViews": [
    {
      "buffer": 0,
      "byteLength": 720,
      "byteStride": 12,
      "target": 34962
    },
    {
      "buffer": 0,
      "byteOffset": 720,
      "byteLength": 192,
      "target": 34963
    }
  ],
  "materials": [
    {
      "pbrMetallicRoughness": {
        "baseColorFactor": [
          1.0,
          0.5019608,
          0.5019608,
          0.5
        ],
        "metallicFactor": 0.0
      },
      "alphaMode": "BLEND",
      "doubleSided": true
    }
  ],
  "meshes": [
    {
      "primitives": [
        {
          "attributes": {
            "POSITION": 0,
            "NORMAL": 1
          },
          "indices": 2,
          "material": 0
        }
      ]
    }
  ],
  "nodes": [
    {
      "children": [
        1
      ],
      "name": "2"
    },
    {
      "mesh": 0,
      "name": "Bloc = Etape 2"
    }
  ],
  "scene": 0,
  "scenes": [
    {
      "nodes": [
        0
      ]
    }
  ]
}